<?xml version="1.0" encoding="UTF-8" standalone="no"?>
<svg
   xmlns:dc="http://purl.org/dc/elements/1.1/"
   xmlns:cc="http://creativecommons.org/ns#"
   xmlns:rdf="http://www.w3.org/1999/02/22-rdf-syntax-ns#"
   xmlns:svg="http://www.w3.org/2000/svg"
   xmlns="http://www.w3.org/2000/svg"
   xmlns:sodipodi="http://sodipodi.sourceforge.net/DTD/sodipodi-0.dtd"
   xmlns:inkscape="http://www.inkscape.org/namespaces/inkscape"
   version="1.1"
   id="svg833"
   width="23.999958"
   height="24.000025"
   viewBox="0 0 23.999957 24.000024"
   sodipodi:docname="laser settings.svg"
   inkscape:version="1.0.2-2 (e86c870879, 2021-01-15)">
  <metadata
     id="metadata839">
    <rdf:RDF>
      <cc:Work
         rdf:about="">
        <dc:format>image/svg+xml</dc:format>
        <dc:type
           rdf:resource="http://purl.org/dc/dcmitype/StillImage" />
        <dc:title />
      </cc:Work>
    </rdf:RDF>
  </metadata>
  <defs
     id="defs837" />
  <sodipodi:namedview
     pagecolor="#ffffff"
     bordercolor="#666666"
     borderopacity="1"
     objecttolerance="10"
     gridtolerance="10"
     guidetolerance="10"
     inkscape:pageopacity="0"
     inkscape:pageshadow="2"
     inkscape:window-width="1920"
     inkscape:window-height="1001"
     id="namedview835"
     showgrid="false"
     inkscape:zoom="256"
     inkscape:cx="12.777155"
     inkscape:cy="11.000647"
     inkscape:window-x="-9"
     inkscape:window-y="-9"
     inkscape:window-maximized="1"
     inkscape:current-layer="g841"
     inkscape:document-rotation="0" />
  <g
     inkscape:groupmode="layer"
     inkscape:label="Image"
     id="g841"
     transform="translate(-291.37263,-164.96975)">
    <path
       style="fill:#000000;stroke-width:0.0317719"
       d="m 295.8344,188.95612 c -0.0122,-0.0122 -0.13967,-0.0334 -0.28332,-0.0472 -0.44186,-0.0424 -0.57756,-0.0631 -0.60894,-0.0929 -0.0166,-0.0158 -0.0693,-0.0287 -0.11722,-0.0287 -0.0479,0 -0.0959,-0.0143 -0.10668,-0.0318 -0.0108,-0.0175 -0.0608,-0.0318 -0.11116,-0.0318 -0.0503,0 -0.10036,-0.0143 -0.11115,-0.0318 -0.0108,-0.0175 -0.0537,-0.0318 -0.0953,-0.0318 -0.0416,0 -0.0845,-0.0143 -0.0953,-0.0318 -0.0108,-0.0175 -0.0474,-0.0318 -0.0813,-0.0318 -0.0339,0 -0.0616,-0.0143 -0.0616,-0.0318 0,-0.0175 -0.0194,-0.0318 -0.0432,-0.0318 -0.0522,0 -0.44473,-0.19678 -0.45968,-0.23043 -0.006,-0.0131 -0.0308,-0.0238 -0.0556,-0.0238 -0.0247,0 -0.045,-0.0143 -0.045,-0.0318 0,-0.0175 -0.0214,-0.0318 -0.0476,-0.0318 -0.0262,0 -0.0476,-0.0143 -0.0476,-0.0318 0,-0.0175 -0.0214,-0.0318 -0.0476,-0.0318 -0.0262,0 -0.0476,-0.0143 -0.0476,-0.0318 0,-0.0175 -0.0183,-0.0318 -0.0406,-0.0318 -0.0223,0 -0.0612,-0.0286 -0.0864,-0.0636 -0.0252,-0.035 -0.0592,-0.0636 -0.0757,-0.0636 -0.0294,0 -0.50536,-0.47512 -0.64848,-0.64736 -0.0402,-0.0484 -0.089,-0.12279 -0.10831,-0.16531 -0.0194,-0.0425 -0.0462,-0.0773 -0.0597,-0.0773 -0.0135,0 -0.0336,-0.0285 -0.0446,-0.0634 -0.0111,-0.0349 -0.0401,-0.0834 -0.0646,-0.10795 -0.063,-0.0631 -0.40789,-0.76966 -0.45934,-0.94113 -0.0236,-0.0787 -0.0547,-0.15663 -0.0692,-0.17323 -0.0144,-0.0166 -0.0262,-0.0561 -0.0262,-0.0878 0,-0.0317 -0.0129,-0.0825 -0.0287,-0.11283 -0.0759,-0.14615 -0.20175,-0.76267 -0.25783,-1.26302 -0.0492,-0.43902 -0.0231,-14.8252 0.0276,-15.19307 0.076,-0.55194 0.18497,-0.98642 0.33306,-1.3281 0.0244,-0.0562 0.0708,-0.1651 0.10317,-0.24195 0.0324,-0.0769 0.0736,-0.15553 0.0917,-0.17482 0.018,-0.0193 0.0674,-0.0994 0.10981,-0.17811 0.0424,-0.0787 0.0852,-0.15017 0.0953,-0.15891 0.01,-0.009 0.0533,-0.066 0.0962,-0.12715 0.12276,-0.17512 0.13016,-0.18356 0.3999,-0.45653 0.14056,-0.14224 0.3036,-0.29438 0.36232,-0.33808 0.78197,-0.5586 1.36035,-0.79692 2.09752,-0.98587 0.0786,-0.0203 0.23922,-0.0636 0.31782,-0.0716 0.2269,-0.0533 0.32584,-0.0599 0.47616,-0.0737 0.41719,-0.0391 14.83899,-0.0265 15.19673,0.0133 0.54831,0.061 0.63436,0.0744 0.66535,0.10393 0.0166,0.0158 0.0765,0.0287 0.1331,0.0287 0.0566,0 0.11176,0.0143 0.12256,0.0318 0.0108,0.0175 0.0547,0.0318 0.0976,0.0318 0.0429,0 0.10277,0.0126 0.13311,0.0281 0.0303,0.0154 0.098,0.0457 0.15042,0.0673 0.0524,0.0216 0.12009,0.0518 0.15042,0.0673 0.0303,0.0154 0.0768,0.0281 0.10322,0.0281 0.0264,0 0.0481,0.0143 0.0481,0.0318 0,0.0175 0.0216,0.0318 0.0481,0.0318 0.0466,0 0.17373,0.0604 0.206,0.0979 0.009,0.0101 0.0623,0.0387 0.1191,0.0634 0.0568,0.0247 0.10322,0.0558 0.10322,0.069 0,0.0132 0.0214,0.024 0.0476,0.024 0.0262,0 0.0476,0.0143 0.0476,0.0318 0,0.0175 0.0214,0.0318 0.0476,0.0318 0.0262,0 0.0476,0.0143 0.0476,0.0318 0,0.0175 0.0183,0.0318 0.0406,0.0318 0.0224,0 0.0612,0.0286 0.0864,0.0636 0.0252,0.035 0.0591,0.0636 0.0754,0.0636 0.0526,0 0.68209,0.66693 0.7509,0.79561 0.0219,0.0409 0.0665,0.1031 0.099,0.13809 0.0326,0.035 0.0592,0.0824 0.0592,0.1053 0,0.0229 0.0119,0.0417 0.0264,0.0417 0.0282,0 0.41826,0.76083 0.41826,0.81576 0,0.018 0.0237,0.0803 0.0527,0.13842 0.11103,0.22274 0.28426,0.95646 0.36006,1.52501 0.0494,0.37079 0.0245,14.96482 -0.0262,15.33611 -0.0596,0.43649 -0.15203,0.82841 -0.2304,0.97695 -0.016,0.0304 -0.0291,0.077 -0.0291,0.10373 0,0.0267 -0.0124,0.0734 -0.0275,0.10374 -0.0151,0.0303 -0.0895,0.18749 -0.16533,0.3492 -0.0758,0.1617 -0.14559,0.29416 -0.1551,0.29436 -0.01,1.9e-4 -0.0429,0.0538 -0.0742,0.1192 -0.0313,0.0654 -0.0956,0.1644 -0.14292,0.22009 -0.0473,0.0557 -0.11707,0.14151 -0.15501,0.19071 -0.10498,0.13613 -0.32949,0.36264 -0.48244,0.48675 -0.0754,0.0612 -0.17512,0.14342 -0.22159,0.18273 -0.0465,0.0393 -0.0958,0.0715 -0.10963,0.0715 -0.0138,0 -0.0534,0.0264 -0.0879,0.0585 -0.0345,0.0322 -0.10179,0.0786 -0.14953,0.10324 -0.0477,0.0246 -0.0939,0.0527 -0.10268,0.0624 -0.0281,0.0313 -0.6897,0.34794 -0.72703,0.34794 -0.0198,0 -0.068,0.0165 -0.10708,0.0368 -0.15252,0.0789 -0.18344,0.0904 -0.2434,0.0904 -0.0341,0 -0.0709,0.0143 -0.0817,0.0318 -0.0108,0.0175 -0.0608,0.0318 -0.11116,0.0318 -0.0503,0 -0.0994,0.0128 -0.10908,0.0284 -0.01,0.0156 -0.0712,0.0364 -0.13685,0.0461 -0.0656,0.01 -0.1979,0.0335 -0.29397,0.053 -0.49352,0.0999 -0.73646,0.10336 -8.08521,0.11514 -4.08878,0.007 -7.4441,0.002 -7.45628,-0.0102 z m 15.11274,-0.78792 c 0.12227,-0.012 0.23589,-0.0349 0.25249,-0.051 0.0166,-0.0161 0.0836,-0.0292 0.14898,-0.0292 0.0653,0 0.12764,-0.0143 0.13844,-0.0318 0.0108,-0.0175 0.068,-0.0318 0.12703,-0.0318 0.0591,0 0.11624,-0.0143 0.12704,-0.0318 0.0108,-0.0175 0.0476,-0.0318 0.0817,-0.0318 0.06,0 0.0909,-0.0115 0.2434,-0.0904 0.0391,-0.0202 0.0998,-0.0367 0.13497,-0.0367 0.0352,0 0.064,-0.0143 0.064,-0.0318 0,-0.0175 0.0194,-0.0318 0.0432,-0.0318 0.0522,0 0.44473,-0.19679 0.45968,-0.23043 0.006,-0.0131 0.0308,-0.0238 0.0556,-0.0238 0.0247,0 0.045,-0.0143 0.045,-0.0318 0,-0.0175 0.0214,-0.0318 0.0476,-0.0318 0.0262,0 0.0476,-0.0143 0.0476,-0.0318 0,-0.0175 0.0214,-0.0318 0.0476,-0.0318 0.0262,0 0.0476,-0.0143 0.0476,-0.0318 0,-0.0175 0.0141,-0.0318 0.0314,-0.0318 0.0438,0 0.13298,-0.0762 0.3939,-0.33651 0.27161,-0.27102 0.32302,-0.33171 0.45538,-0.53757 0.0562,-0.0874 0.11329,-0.17323 0.12687,-0.19071 0.0596,-0.0767 0.27271,-0.57039 0.32245,-0.74694 0.11213,-0.39802 0.15467,-0.63748 0.19479,-1.09657 0.0501,-0.57287 0.025,-14.71125 -0.0266,-15.03415 -0.0828,-0.51782 -0.19722,-0.94576 -0.33982,-1.2714 -0.10869,-0.24819 -0.18909,-0.41341 -0.2088,-0.42909 -0.011,-0.009 -0.0524,-0.0803 -0.092,-0.15891 -0.0396,-0.0787 -0.0823,-0.15019 -0.0948,-0.15893 -0.0125,-0.009 -0.0398,-0.0482 -0.0606,-0.0878 -0.0685,-0.13016 -0.48162,-0.56635 -0.66948,-0.70684 -0.0584,-0.0437 -0.1244,-0.0974 -0.14659,-0.1192 -0.0222,-0.0219 -0.0556,-0.0397 -0.0744,-0.0397 -0.0187,0 -0.034,-0.0126 -0.034,-0.0281 0,-0.0154 -0.025,-0.036 -0.0556,-0.0457 -0.0743,-0.0236 -0.24347,-0.1268 -0.25672,-0.15665 -0.006,-0.0131 -0.0304,-0.0238 -0.0546,-0.0238 -0.0242,0 -0.0949,-0.0286 -0.15712,-0.0636 -0.0622,-0.035 -0.14123,-0.0636 -0.17564,-0.0636 -0.0344,0 -0.0625,-0.0127 -0.0625,-0.0282 0,-0.0155 -0.0393,-0.0361 -0.0873,-0.0458 -0.21956,-0.0442 -0.28216,-0.0598 -0.34141,-0.0854 -0.20604,-0.0889 -0.80417,-0.13125 -2.07228,-0.14657 l -1.24654,-0.0151 v 1.24117 1.24117 h -0.69482 c -0.52478,0 -0.70304,0.01 -0.72845,0.0406 -0.0297,0.0359 -0.1472,0.42405 -0.23056,0.762 -0.0162,0.0656 -0.0437,0.1764 -0.0612,0.24632 -0.0175,0.0699 -0.0446,0.18078 -0.0604,0.24633 -0.0157,0.0656 -0.0737,0.28369 -0.12882,0.48472 l -0.5095,1.94074 v 0.0935 h -1.14332 -1.14333 v 2.76526 c 0,2.71606 10e-4,2.76528 0.0616,2.76528 0.0339,0 0.0705,0.0143 0.0813,0.0318 0.0108,0.0175 0.051,0.0313 0.0892,0.0308 0.0562,-8.1e-4 0.10012,-0.0627 0.22838,-0.32198 0.0873,-0.17655 0.17331,-0.337 0.19104,-0.35657 0.0177,-0.0196 0.11615,-0.20009 0.21869,-0.40112 0.10253,-0.20104 0.20348,-0.38698 0.22431,-0.4132 0.0208,-0.0262 0.0998,-0.16926 0.1754,-0.31785 0.0756,-0.14859 0.14597,-0.27732 0.1563,-0.28606 0.0103,-0.009 0.0501,-0.0765 0.0884,-0.15055 0.0383,-0.0741 0.13052,-0.25285 0.20495,-0.39731 0.0744,-0.14446 0.14317,-0.2698 0.15275,-0.27854 0.01,-0.009 0.0802,-0.13747 0.15685,-0.28607 0.0767,-0.1486 0.14373,-0.2753 0.14897,-0.28158 0.0156,-0.0186 0.20374,0.0725 0.20374,0.0986 0,0.0132 0.0206,0.024 0.0458,0.024 0.0252,0 0.0529,0.0115 0.0616,0.0256 0.0146,0.0236 -0.25123,0.57403 -0.29464,0.61006 -0.0105,0.009 -0.0505,0.0765 -0.0888,0.15055 -0.0383,0.0741 -0.13053,0.25285 -0.20496,0.39731 -0.0744,0.14446 -0.14317,0.2698 -0.15274,0.27854 -0.01,0.009 -0.0804,0.13747 -0.1574,0.28607 -0.15228,0.26478 -0.28653,0.52848 -0.41289,0.76289 -0.0945,0.18356 -0.18054,0.34089 -0.1913,0.34963 -0.0211,0.0171 -0.38319,0.7154 -0.38319,0.73893 0,0.008 0.0267,0.045 0.0593,0.0826 0.0609,0.0703 0.163,0.0933 0.163,0.0367 0,-0.0175 0.0214,-0.0318 0.0476,-0.0318 2.37143,-1.7008 4.58639,-3.25809 6.65169,-4.73641 0,-0.0455 0.12407,-0.0393 0.17192,0.009 0.10835,0.10843 0.14872,0.27746 0.0663,0.27746 -2.23092,1.58915 -4.60015,3.27214 -6.65204,4.73608 0,0.0175 -0.0153,0.0318 -0.034,0.0318 -0.0708,0 -0.12866,0.0966 -0.11886,0.19842 0.01,0.0992 0.0153,0.10326 0.13701,0.097 1.28242,-0.16162 2.65464,-0.39646 3.68253,-0.5496 0.22029,0 0.23972,0.0164 0.23972,0.2028 0,0.087 -0.0158,0.10798 -0.10548,0.14044 -1.38435,0.17433 -2.75864,0.42921 -3.92793,0.68371 3.50193,1.03752 6.34377,1.5992 9.43245,2.41254 0.0958,0.009 0.1126,0.0228 0.12154,0.10104 0.016,0.14016 -0.0523,0.27471 -0.13939,0.27471 -3.02342,-0.80147 -6.56508,-1.63025 -9.44823,-2.3531 -0.10399,0 -0.12517,0.0108 -0.12517,0.0636 0,0.035 0.0153,0.0636 0.034,0.0636 0.0187,0 0.0528,0.0179 0.0759,0.0397 1.21428,0.88201 2.40136,1.69625 3.46229,2.45031 0.15659,0.099 0.17071,0.13718 0.0873,0.23587 -0.0306,0.0362 -0.071,0.0913 -0.0898,0.12248 -0.0319,0.053 -0.0441,0.0505 -0.18256,-0.037 -1.12361,-0.7889 -2.26561,-1.59968 -3.40297,-2.39812 -0.0959,-0.0612 -0.17443,-0.12196 -0.17452,-0.13508 -1.8e-4,-0.0291 -0.10867,-0.0318 -0.13709,-0.003 -0.0189,0.0189 0.18875,0.45204 0.23398,0.48805 0.011,0.009 0.0829,0.13746 0.15989,0.28606 0.077,0.1486 0.14859,0.27732 0.15918,0.28606 0.0106,0.009 0.0678,0.10886 0.12709,0.22249 0.0593,0.11364 0.11619,0.21376 0.12638,0.2225 0.0102,0.009 0.067,0.10886 0.12628,0.22249 0.0593,0.11363 0.11655,0.21376 0.12731,0.2225 0.0108,0.009 0.0825,0.13746 0.1595,0.28605 0.077,0.1486 0.14859,0.27732 0.15918,0.28606 0.0106,0.009 0.0678,0.10887 0.12709,0.2225 0.0593,0.11363 0.11619,0.21375 0.12638,0.22249 0.0102,0.009 0.067,0.10886 0.12628,0.2225 0.0593,0.11363 0.11643,0.21375 0.12703,0.22249 0.0106,0.009 0.0678,0.10886 0.12704,0.22249 0.0593,0.11363 0.11638,0.21376 0.12693,0.2225 0.0105,0.009 0.0769,0.12316 0.14748,0.25427 0.0706,0.13112 0.18733,0.34406 0.25947,0.47323 0.0721,0.12916 0.13117,0.24597 0.13117,0.25958 0,0.0136 0.0119,0.0295 0.0264,0.0353 0.0145,0.006 0.0749,0.10356 0.13422,0.2172 0.0593,0.11363 0.11654,0.21375 0.12714,0.22249 0.0106,0.009 0.0678,0.10886 0.12704,0.22249 0.0593,0.11363 0.11655,0.21376 0.12731,0.2225 0.0108,0.009 0.0825,0.13746 0.1595,0.28606 0.077,0.14859 0.14829,0.27731 0.15852,0.28605 0.0102,0.009 0.0671,0.10887 0.12633,0.2225 0.0593,0.11363 0.11643,0.21375 0.12704,0.22249 0.0106,0.009 0.0679,0.10886 0.12734,0.2225 0.0594,0.11363 0.12613,0.22549 0.14821,0.24859 0.0569,0.0595 0.0498,0.13127 -0.0154,0.15534 -0.0306,0.0113 -0.0627,0.0287 -0.0715,0.0387 -0.009,0.01 -0.0486,0.0366 -0.0886,0.059 -0.0791,0.0444 -0.13368,0.028 -0.13368,-0.04 0,-0.0237 -0.0119,-0.0479 -0.0264,-0.0537 -0.0145,-0.006 -0.0749,-0.10357 -0.13422,-0.21719 -0.0593,-0.11363 -0.11654,-0.21376 -0.12715,-0.2225 -0.0106,-0.009 -0.0678,-0.10886 -0.12703,-0.22249 -0.0593,-0.11363 -0.11524,-0.21375 -0.12439,-0.22249 -0.0187,-0.0179 -0.0397,-0.0558 -0.19308,-0.34963 -0.0593,-0.11363 -0.11655,-0.21376 -0.12716,-0.2225 -0.0106,-0.009 -0.0678,-0.10886 -0.12704,-0.22249 -0.0593,-0.11363 -0.11643,-0.21375 -0.12703,-0.22249 -0.0106,-0.009 -0.0678,-0.10887 -0.12704,-0.22249 -0.0593,-0.11363 -0.11654,-0.21376 -0.12729,-0.2225 -0.0108,-0.009 -0.0819,-0.13747 -0.15808,-0.28606 -0.0762,-0.14859 -0.14753,-0.27732 -0.15854,-0.28607 -0.011,-0.009 -0.0685,-0.10886 -0.12775,-0.22248 -0.0593,-0.11364 -0.11643,-0.21376 -0.12704,-0.2225 -0.0106,-0.009 -0.0678,-0.10887 -0.12704,-0.22249 -0.0593,-0.11363 -0.11642,-0.21375 -0.12703,-0.2225 -0.0106,-0.009 -0.0678,-0.10886 -0.12704,-0.22248 -0.0593,-0.11364 -0.11697,-0.21376 -0.12823,-0.2225 -0.0113,-0.009 -0.0668,-0.10886 -0.12342,-0.22249 -0.0566,-0.11363 -0.12079,-0.22806 -0.14261,-0.25428 -0.0218,-0.0262 -0.0947,-0.15495 -0.16201,-0.28606 -0.0673,-0.13111 -0.1312,-0.24554 -0.14203,-0.25428 -0.0108,-0.009 -0.0682,-0.10887 -0.12743,-0.22249 -0.0593,-0.11363 -0.11643,-0.21376 -0.12704,-0.2225 -0.0106,-0.009 -0.0678,-0.10886 -0.12704,-0.22248 -0.0593,-0.11364 -0.11524,-0.21376 -0.12439,-0.2225 -0.0187,-0.0178 -0.0397,-0.0558 -0.19307,-0.34963 -0.0593,-0.11363 -0.1171,-0.21376 -0.12836,-0.2225 -0.0113,-0.009 -0.0669,-0.10885 -0.12362,-0.22248 -0.0567,-0.11364 -0.10909,-0.21308 -0.11637,-0.22098 -0.0271,-0.0294 -0.24816,0.003 -0.27155,0.0397 -0.0134,0.021 -0.0245,1.0359 -0.0248,2.25524 l -4.9e-4,2.21699 h -0.19556 -0.19557 l 0.0171,-2.21699 c 0.009,-1.21934 0.0104,-2.23486 0.002,-2.25671 -0.008,-0.0219 -0.0403,-0.0397 -0.0717,-0.0397 -0.0732,0 -0.0916,0.025 -0.25734,0.34963 -0.0759,0.14859 -0.14575,0.27732 -0.15529,0.28606 -0.01,0.009 -0.0468,0.0731 -0.0829,0.14304 -0.17287,0.3356 -0.28391,0.54178 -0.29956,0.55622 -0.009,0.009 -0.0943,0.16608 -0.18843,0.34964 -0.0942,0.18355 -0.17991,0.34089 -0.19055,0.34963 -0.0106,0.009 -0.0964,0.16608 -0.19056,0.34963 -0.0942,0.18356 -0.17991,0.34089 -0.19055,0.34963 -0.0106,0.009 -0.0964,0.16608 -0.19055,0.34964 -0.0942,0.18355 -0.17992,0.34088 -0.19056,0.34963 -0.0106,0.009 -0.0964,0.16607 -0.19055,0.34962 -0.0942,0.18356 -0.17992,0.3409 -0.19056,0.34964 -0.0106,0.009 -0.0964,0.16607 -0.19055,0.34963 -0.0942,0.18355 -0.17981,0.34089 -0.19031,0.34963 -0.0105,0.009 -0.0976,0.16963 -0.19344,0.35752 -0.0959,0.18789 -0.18506,0.34165 -0.19816,0.34169 -0.0131,0 -0.0238,0.0275 -0.0238,0.061 0,0.0335 -0.0107,0.0657 -0.0238,0.0715 -0.0131,0.006 -0.0868,0.13217 -0.16386,0.28077 -0.077,0.14858 -0.15206,0.27493 -0.16674,0.28076 -0.0147,0.006 -0.0267,0.0368 -0.0267,0.0689 0,0.032 -0.0108,0.063 -0.0239,0.0689 -0.0131,0.006 -0.10116,0.16077 -0.19561,0.34433 -0.0944,0.18356 -0.18092,0.34088 -0.19215,0.34963 -0.0112,0.009 -0.0457,0.0704 -0.0767,0.13694 -0.0325,0.0699 -0.0721,0.11356 -0.0936,0.10332 -0.0205,-0.01 -0.0623,-0.0266 -0.0929,-0.0374 -0.0306,-0.0108 -0.0556,-0.0323 -0.0556,-0.0477 0,-0.0155 -0.0219,-0.0281 -0.0486,-0.0281 -0.0763,0 -0.088,-0.0799 -0.0286,-0.19578 0.0299,-0.0584 0.0634,-0.11333 0.0743,-0.12207 0.011,-0.009 0.097,-0.16608 0.19118,-0.34963 0.0942,-0.18356 0.17992,-0.34089 0.19056,-0.34963 0.0106,-0.009 0.0964,-0.16607 0.19055,-0.34963 0.0942,-0.18356 0.17975,-0.34089 0.19019,-0.34963 0.0104,-0.009 0.11038,-0.19469 0.22209,-0.4132 0.11171,-0.21853 0.21253,-0.40447 0.22405,-0.41321 0.0115,-0.009 0.0973,-0.16607 0.19056,-0.34963 0.0933,-0.18355 0.17843,-0.34089 0.18919,-0.34963 0.0107,-0.009 0.0966,-0.16608 0.19077,-0.34963 0.0942,-0.18356 0.18053,-0.3409 0.19192,-0.34964 0.0114,-0.009 0.0971,-0.16607 0.19034,-0.34963 0.0933,-0.18355 0.17843,-0.34088 0.18919,-0.34962 0.0108,-0.009 0.0966,-0.16608 0.19076,-0.34963 0.0942,-0.18356 0.17992,-0.3409 0.19056,-0.34964 0.0106,-0.009 0.0964,-0.16607 0.19055,-0.34963 0.0942,-0.18356 0.17992,-0.34089 0.19056,-0.34963 0.0106,-0.009 0.0964,-0.16608 0.19055,-0.34963 0.0942,-0.18356 0.17968,-0.3409 0.19003,-0.34964 0.0404,-0.0341 0.28866,-0.53738 0.28866,-0.5851 -0.001,-0.0255 -0.13551,-0.114 -0.14291,-0.11415 l -4.06315,2.89132 c -0.0863,0.0462 -0.10055,0.037 -0.23201,-0.14911 l -0.0712,-0.10081 4.026,-2.8578 c 0.0711,-0.0619 0.0715,-0.0653 0.0179,-0.17761 -0.0462,-0.0969 -0.0705,-0.11455 -0.15798,-0.11455 -3.39741,0.49913 -6.28795,1.15594 -9.28202,1.42211 l -0.0335,-0.15639 c -0.0184,-0.086 -0.0335,-0.16122 -0.0335,-0.1671 3.04096,-0.34188 6.42084,-1.16424 9.10522,-1.40428 0.23661,-0.021 0.29505,-0.0708 0.2191,-0.18684 -0.0388,-0.0593 -0.0799,-0.0796 -0.16068,-0.0796 -3.28809,-0.8264 -2.03147,-0.50704 -3.28809,-0.8264 -0.051,0 -0.057,-0.0173 -0.0413,-0.11919 0.0307,-0.19975 0.0575,-0.2288 0.19212,-0.20841 l 3.23145,0.80437 c 0.025,0.0405 0.13323,0.0414 0.15799,0.001 0.025,-0.0405 -0.0513,-0.16022 -0.10212,-0.16022 -0.022,0 -0.04,-0.0143 -0.04,-0.0318 -2.45087,-1.75405 -4.95776,-3.47031 -7.11208,-5.03808 0.0252,-0.12241 0.16653,-0.20255 0.2221,-0.27013 0.0349,0 0.0636,0.0107 0.0637,0.0238 2.20122,1.61078 4.94212,3.49836 7.11198,5.03015 0,0.0604 0.0701,0.0314 0.16193,-0.0669 0.0507,-0.0543 0.0921,-0.10566 0.0921,-0.11415 0,-0.0252 -0.29645,-0.59624 -0.31851,-0.61354 -0.0111,-0.009 -0.0687,-0.10886 -0.12801,-0.22249 -0.0593,-0.11363 -0.11643,-0.21376 -0.12704,-0.2225 -0.0106,-0.009 -0.0678,-0.10885 -0.12703,-0.22249 -0.0593,-0.11363 -0.11643,-0.21375 -0.12704,-0.22249 -0.0106,-0.009 -0.0678,-0.10887 -0.12704,-0.22249 -0.0593,-0.11363 -0.11523,-0.21376 -0.12438,-0.2225 -0.0187,-0.0179 -0.0397,-0.0558 -0.19308,-0.34963 -0.0593,-0.11363 -0.1174,-0.21375 -0.12904,-0.2225 -0.0116,-0.009 -0.0679,-0.10885 -0.12514,-0.22248 -0.0572,-0.11363 -0.11351,-0.21376 -0.12516,-0.2225 -0.0116,-0.009 -0.0699,-0.10886 -0.12942,-0.22249 -0.0595,-0.11363 -0.11908,-0.21137 -0.13233,-0.2172 -0.0694,-0.0305 -0.008,-0.12356 0.12333,-0.18658 0.17281,-0.083 0.17599,-0.0809 0.33023,0.21307 0.0596,0.11363 0.11706,0.21376 0.12767,0.2225 0.0106,0.009 0.0678,0.10885 0.12703,0.22249 0.0593,0.11363 0.11656,0.21375 0.12732,0.22249 0.0108,0.009 0.0825,0.13746 0.15949,0.28606 0.077,0.1486 0.1483,0.27733 0.15852,0.28607 0.0102,0.009 0.0671,0.10885 0.12634,0.22249 0.0593,0.11363 0.11643,0.21375 0.12703,0.22249 0.0106,0.009 0.0678,0.10886 0.12704,0.22249 0.0593,0.11363 0.11656,0.21376 0.12731,0.2225 0.0108,0.009 0.0825,0.13746 0.1595,0.28606 0.077,0.14859 0.14859,0.27732 0.15918,0.28606 0.0106,0.009 0.0678,0.10886 0.12709,0.22249 0.12553,0.24048 0.18352,0.31166 0.21395,0.26263 0.0115,-0.0186 0.0567,-0.0388 0.10033,-0.0449 l 0.0794,-0.0112 0.008,-2.75733 0.008,-2.75732 h -1.15713 -1.15713 l -0.0498,-0.18276 c -0.0274,-0.10052 -0.0641,-0.22669 -0.0817,-0.28037 -0.0175,-0.0537 -0.0319,-0.12183 -0.0319,-0.15142 0,-0.0296 -0.0136,-0.0786 -0.0302,-0.10898 -0.0267,-0.0489 -0.0762,-0.227 -0.16108,-0.57964 -0.0147,-0.0612 -0.0577,-0.21852 -0.0956,-0.34963 -0.0379,-0.13111 -0.0807,-0.28845 -0.0953,-0.34964 -0.0145,-0.0612 -0.0574,-0.21851 -0.0953,-0.34963 -0.0379,-0.13111 -0.0807,-0.28844 -0.0953,-0.34962 -0.0145,-0.0612 -0.0575,-0.21853 -0.0954,-0.34963 -0.0379,-0.13112 -0.0758,-0.27415 -0.0841,-0.31786 -0.008,-0.0437 -0.0237,-0.10092 -0.0342,-0.12713 -0.0104,-0.0262 -0.0343,-0.10489 -0.053,-0.17482 l -0.034,-0.12714 -0.54785,-0.009 -0.54784,-0.009 v -1.2399 -1.2399 l -1.26243,0.0146 c -1.03587,0.0428 -2.14591,-0.0867 -3.71846,0.91498 -0.006,0.0143 -0.0262,0.026 -0.0452,0.026 -0.0462,0 -0.6165,0.59049 -0.74304,0.76936 -0.21299,0.30108 -0.44083,0.82971 -0.54516,1.26486 -0.0189,0.0787 -0.0529,0.22171 -0.0756,0.31785 -0.0612,0.25907 -0.0609,15.44456 3.2e-4,15.70163 0.0229,0.0961 0.0702,0.2964 0.10507,0.44499 0.0349,0.14859 0.0769,0.29501 0.0933,0.32536 0.0165,0.0304 0.0299,0.0743 0.0299,0.0977 0,0.0234 0.0429,0.13105 0.0953,0.23932 0.0524,0.10827 0.0953,0.21808 0.0953,0.24402 0,0.026 0.0143,0.0472 0.0318,0.0472 0.0175,0 0.0317,0.0286 0.0317,0.0636 0,0.035 0.0108,0.0636 0.0239,0.0636 0.0131,0 0.0594,0.0679 0.10275,0.15098 0.0434,0.083 0.0934,0.1671 0.1111,0.18681 0.0177,0.0197 0.0537,0.0677 0.0799,0.10662 0.15396,0.22878 0.68851,0.76341 0.76329,0.76341 0.0169,0 0.0307,0.0143 0.0307,0.0318 0,0.0175 0.0214,0.0318 0.0476,0.0318 0.0262,0 0.0476,0.0143 0.0476,0.0318 0,0.0175 0.0214,0.0318 0.0476,0.0318 0.0262,0 0.0476,0.0116 0.0476,0.0258 0,0.0142 0.05,0.0455 0.11115,0.0695 0.0611,0.024 0.11116,0.0553 0.11116,0.0695 0,0.0142 0.0286,0.0259 0.0635,0.0259 0.0349,0 0.0635,0.0143 0.0635,0.0318 0,0.0175 0.0216,0.0318 0.0481,0.0318 0.0264,0 0.0765,0.0143 0.11115,0.0318 0.0347,0.0175 0.0915,0.0461 0.12618,0.0636 0.0347,0.0175 0.091,0.0318 0.12516,0.0318 0.0341,0 0.0709,0.0143 0.0817,0.0318 0.0108,0.0175 0.0608,0.0318 0.11116,0.0318 0.0503,0 0.10036,0.0143 0.11116,0.0318 0.0108,0.0175 0.0751,0.0318 0.14291,0.0318 0.0678,0 0.13212,0.0143 0.14292,0.0318 0.0108,0.0175 0.11525,0.032 0.23213,0.0323 0.11687,2.6e-4 0.23393,0.0144 0.26014,0.0314 0.0543,0.0352 14.73682,0.0204 15.10145,-0.0153 z"
       id="path845"
       sodipodi:nodetypes="ssssssssssssssssssssssssssssssssssssssssccccssssssssssssssssssssssssssssssssscssssscsssssssssssssssssssssssssssssssssssssssssssssssssssssssscccssssscccccsssssssssssssssssssssssccssssccsccssccscccsccssccssccssssssssssssssssssssssssssssssssssssssssssssssssssssssssssssssssssscccsssssssssssssssssscssssssssssssssssssssssssssssssssscccsccsccsccsccsccssscccccsssssssssssssssssssssssssssssscccccssssssssssssscccccccssssssssssssssssssssssssssssssssssscssss" />
  </g>
</svg>
