<?xml version="1.0" encoding="UTF-8" standalone="no"?>
<svg
   xmlns:dc="http://purl.org/dc/elements/1.1/"
   xmlns:cc="http://creativecommons.org/ns#"
   xmlns:rdf="http://www.w3.org/1999/02/22-rdf-syntax-ns#"
   xmlns:svg="http://www.w3.org/2000/svg"
   xmlns="http://www.w3.org/2000/svg"
   xmlns:sodipodi="http://sodipodi.sourceforge.net/DTD/sodipodi-0.dtd"
   xmlns:inkscape="http://www.inkscape.org/namespaces/inkscape"
   version="1.1"
   id="svg833"
   width="24.000006"
   height="24.000006"
   viewBox="0 0 24.000006 24.000006"
   sodipodi:docname="magazyn.svg"
   inkscape:version="1.0.2-2 (e86c870879, 2021-01-15)">
  <metadata
     id="metadata839">
    <rdf:RDF>
      <cc:Work
         rdf:about="">
        <dc:format>image/svg+xml</dc:format>
        <dc:type
           rdf:resource="http://purl.org/dc/dcmitype/StillImage" />
        <dc:title></dc:title>
      </cc:Work>
    </rdf:RDF>
  </metadata>
  <defs
     id="defs837" />
  <sodipodi:namedview
     pagecolor="#ffffff"
     bordercolor="#666666"
     borderopacity="1"
     objecttolerance="10"
     gridtolerance="10"
     guidetolerance="10"
     inkscape:pageopacity="0"
     inkscape:pageshadow="2"
     inkscape:window-width="1920"
     inkscape:window-height="1001"
     id="namedview835"
     showgrid="false"
     inkscape:zoom="1.4440152"
     inkscape:cx="200.47332"
     inkscape:cy="170.42298"
     inkscape:window-x="-9"
     inkscape:window-y="-9"
     inkscape:window-maximized="1"
     inkscape:current-layer="g841" />
  <g
     inkscape:groupmode="layer"
     inkscape:label="Image"
     id="g841"
     transform="translate(-20.035614,0.53098907)">
    <path
       style="fill:#000000;stroke-width:0.0492965"
       d="m 20.866195,23.423631 c 0,-0.02496 -0.07016,-0.06079 -0.155918,-0.07963 C 20.494126,23.296531 20.092332,22.885843 20.05437,22.67358 20.03806,22.58236 20.03103,17.459255 20.03875,11.288901 L 20.0528,0.07007623 20.188253,-0.10750892 c 0.0745,-0.0976718 0.2076,-0.22904461 0.29578,-0.29193974 l 0.160327,-0.11435465 11.214985,-0.0140458 c 6.168242,-0.007725 11.289619,-6.9802e-4 11.380838,0.0156159 0.212263,0.0379617 0.622952,0.43975595 0.670426,0.65590704 0.01884,0.0857545 0.05467,0.15591737 0.07963,0.15591737 0.02751,0 0.04538,4.3779899 0.04538,11.1163918 0,6.738402 -0.01787,11.116392 -0.04538,11.116392 -0.02496,0 -0.06079,0.07016 -0.07963,0.155917 -0.04469,0.203488 -0.452226,0.61102 -0.655714,0.655714 -0.08575,0.01883 -0.155917,0.05467 -0.155917,0.07963 0,0.02751 -4.37799,0.04538 -11.116392,0.04538 -6.738401,0 -11.116391,-0.01787 -11.116391,-0.04538 z M 42.753902,11.415983 V 0.64466766 H 31.982586 21.211271 V 11.415983 22.187298 h 10.771315 10.771316 z m -17.549603,5.765793 c -0.456884,-0.127583 -1.018566,-0.521253 -1.179126,-0.826419 -0.03847,-0.07312 -0.08838,-0.132952 -0.110917,-0.132952 -0.02253,0 -0.04097,-0.03327 -0.04097,-0.07394 0,-0.04067 -0.02218,-0.07394 -0.0493,-0.07394 -0.02711,0 -0.0493,-0.04306 -0.0493,-0.09568 0,-0.05263 -0.02218,-0.109394 -0.0493,-0.126151 -0.02711,-0.01676 -0.0493,-0.08018 -0.0493,-0.14094 0,-0.06076 -0.02048,-0.131547 -0.0455,-0.157304 -0.02503,-0.02576 -0.05276,-0.113383 -0.06162,-0.194722 -0.0158,-0.144992 -0.02216,-0.148178 -0.324221,-0.162567 l -0.308104,-0.01468 V 10.698829 6.2151878 h 4.923913 4.923915 l 0.02972,0.1109176 c 0.03884,0.1449139 0.03884,8.6052386 0,8.7501526 l -0.02972,0.110918 h -2.381105 c -1.309608,0 -2.416196,0.01346 -2.459083,0.02992 -0.05473,0.021 -0.07798,0.09448 -0.07798,0.246483 0,0.119109 -0.02218,0.216561 -0.0493,0.216561 -0.02711,0 -0.0493,0.04369 -0.0493,0.09709 0,0.115677 -0.171457,0.435533 -0.297194,0.554419 -0.04921,0.04653 -0.103797,0.129719 -0.121298,0.184862 -0.0175,0.05514 -0.05206,0.100261 -0.0768,0.100261 -0.02474,0 -0.161889,0.08891 -0.304782,0.197577 -0.500954,0.380964 -1.196138,0.525815 -1.763355,0.367421 z m 0.946902,-1.366068 c 0.527728,-0.30244 0.64812,-0.963296 0.238479,-1.309066 -0.156455,-0.13206 -0.476949,-0.253937 -0.667767,-0.253937 -0.240918,0 -0.549391,0.136258 -0.714801,0.315742 -0.104866,0.113789 -0.122693,0.179073 -0.119564,0.437849 0.0049,0.407617 0.153068,0.670214 0.45316,0.803284 0.17934,0.07953 0.675871,0.08328 0.810493,0.0061 z m 11.820927,1.362897 c -0.149123,-0.0399 -0.386334,-0.142187 -0.527138,-0.227309 -0.396464,-0.23968 -0.851163,-0.713901 -0.852507,-0.889105 -3.64e-4,-0.04745 -0.02285,-0.08627 -0.04996,-0.08627 -0.02711,0 -0.0493,-0.04437 -0.0493,-0.09859 0,-0.05423 -0.02218,-0.09859 -0.0493,-0.09859 -0.02711,0 -0.0493,-0.102925 -0.0493,-0.228724 0,-0.356436 -0.01043,-0.359463 -1.24474,-0.361267 l -1.072202,-0.0016 V 11.489931 7.792683 h 2.55603 2.55603 l 0.130779,0.308104 c 0.07193,0.1694577 0.130714,0.3358334 0.130636,0.3697249 -1.21e-4,0.033891 0.02204,0.061621 0.04916,0.061621 0.02711,0 0.0493,0.055459 0.0493,0.1232418 0,0.067782 0.02218,0.1232413 0.0493,0.1232413 0.02711,0 0.0493,0.066551 0.0493,0.1478898 0,0.08134 0.02218,0.1478898 0.0493,0.1478898 0.02711,0 0.0493,0.044367 0.0493,0.098594 0,0.054226 0.02218,0.098593 0.0493,0.098593 0.02711,0 0.0493,0.062113 0.0493,0.1380301 0,0.075917 0.01993,0.159105 0.04428,0.1848628 0.02435,0.025757 0.103183,0.2021163 0.175176,0.3919083 0.07199,0.1897922 0.151893,0.3835962 0.177555,0.4306762 0.02566,0.04708 0.04666,0.119177 0.04666,0.160214 0,0.04104 0.02218,0.07461 0.0493,0.07461 0.02711,0 0.0493,0.06655 0.0493,0.14789 0,0.08134 0.02218,0.14789 0.0493,0.14789 0.02711,0 0.0493,0.05546 0.0493,0.123242 0,0.06778 0.02218,0.123241 0.0493,0.123241 0.02711,0 0.0493,0.04437 0.0493,0.09859 0,0.05423 0.02218,0.09859 0.0493,0.09859 0.02711,0 0.0493,0.06655 0.0493,0.147891 0,0.08134 0.0178,0.14789 0.03956,0.14789 0.02176,0 0.08032,0.116463 0.130128,0.258807 0.04981,0.142344 0.109654,0.279882 0.13298,0.305639 0.02333,0.02576 0.04241,0.09785 0.04241,0.160214 0,0.06236 0.02255,0.113382 0.0501,0.113382 0.03302,0 0.04563,0.449686 0.03697,1.318686 l -0.01313,1.318684 -0.172538,0.01536 c -0.214313,0.01908 -0.342504,0.170443 -0.34398,0.406156 -0.0011,0.180609 -0.0961,0.440111 -0.161311,0.440789 -0.02033,1.82e-4 -0.03697,0.03445 -0.03697,0.07609 0,0.140961 -0.49562,0.637533 -0.844898,0.846518 -0.488585,0.292339 -1.03913,0.373367 -1.570637,0.231162 z m 0.985932,-1.39987 c 0.03909,-0.05423 0.09389,-0.09887 0.121801,-0.0992 0.0279,-3.64e-4 0.10065,-0.07767 0.161655,-0.171847 0.08522,-0.131565 0.110918,-0.243315 0.110918,-0.482352 0,-0.295355 -0.0094,-0.32003 -0.184863,-0.487124 -0.409104,-0.389512 -1.00946,-0.382239 -1.369782,0.0166 -0.1564,0.173117 -0.170738,0.214848 -0.170738,0.49697 0,0.287308 0.01241,0.321472 0.184863,0.508909 0.257799,0.280201 0.334647,0.313442 0.728566,0.315146 0.290999,0.0013 0.357904,-0.0143 0.41758,-0.09709 z m 0.573758,-3.386548 c 0.02107,-0.08394 0.01233,-0.139986 -0.02371,-0.151998 -0.03139,-0.01047 -0.05708,-0.07264 -0.05708,-0.138161 0,-0.06552 -0.01664,-0.119212 -0.03697,-0.119307 -0.02033,-1.21e-4 -0.103237,-0.210839 -0.184226,-0.468318 -0.08099,-0.25748 -0.164176,-0.468145 -0.184862,-0.468145 -0.02069,0 -0.03761,-0.06655 -0.03761,-0.14789 0,-0.08134 -0.02218,-0.14789 -0.0493,-0.14789 -0.02711,0 -0.0493,-0.06655 -0.0493,-0.147889 0,-0.08134 -0.02218,-0.14789 -0.0493,-0.14789 -0.02711,0 -0.0493,-0.05546 -0.0493,-0.123242 0,-0.06778 -0.02218,-0.123242 -0.0493,-0.123242 -0.02711,0 -0.0493,-0.06524 -0.0493,-0.14498 0,-0.079739 -0.02218,-0.1586906 -0.0493,-0.1754475 -0.02711,-0.016757 -0.0493,-0.083308 -0.0493,-0.1478898 0,-0.064583 -0.02218,-0.131133 -0.0493,-0.1478905 -0.02711,-0.016757 -0.0493,-0.073525 -0.0493,-0.126151 0,-0.052626 -0.01972,-0.095683 -0.04381,-0.095683 -0.02409,0 -0.05796,-0.075413 -0.07525,-0.167585 -0.01729,-0.092171 -0.05858,-0.186451 -0.09176,-0.2095107 -0.03317,-0.023059 -0.498439,-0.035471 -1.033924,-0.027582 l -0.973609,0.014343 v 1.6747355 c 0,1.247493 0.0156,1.699716 0.06115,1.772659 0.05889,0.09431 0.11805,0.09792 1.601201,0.09792 h 1.540047 z"
       id="path1406" />
  </g>
</svg>
