<?xml version="1.0" encoding="UTF-8" standalone="no"?>
<svg
   xmlns:dc="http://purl.org/dc/elements/1.1/"
   xmlns:cc="http://creativecommons.org/ns#"
   xmlns:rdf="http://www.w3.org/1999/02/22-rdf-syntax-ns#"
   xmlns:svg="http://www.w3.org/2000/svg"
   xmlns="http://www.w3.org/2000/svg"
   xmlns:sodipodi="http://sodipodi.sourceforge.net/DTD/sodipodi-0.dtd"
   xmlns:inkscape="http://www.inkscape.org/namespaces/inkscape"
   version="1.1"
   id="svg1428"
   width="24.000004"
   height="24.000105"
   viewBox="0 0 24.000004 24.000105"
   sodipodi:docname="money.svg"
   inkscape:version="1.0.2-2 (e86c870879, 2021-01-15)">
  <metadata
     id="metadata1434">
    <rdf:RDF>
      <cc:Work
         rdf:about="">
        <dc:format>image/svg+xml</dc:format>
        <dc:type
           rdf:resource="http://purl.org/dc/dcmitype/StillImage" />
        <dc:title></dc:title>
      </cc:Work>
    </rdf:RDF>
  </metadata>
  <defs
     id="defs1432" />
  <sodipodi:namedview
     pagecolor="#ffffff"
     bordercolor="#666666"
     borderopacity="1"
     objecttolerance="10"
     gridtolerance="10"
     guidetolerance="10"
     inkscape:pageopacity="0"
     inkscape:pageshadow="2"
     inkscape:window-width="1920"
     inkscape:window-height="1001"
     id="namedview1430"
     showgrid="false"
     inkscape:zoom="2.0421459"
     inkscape:cx="159.18763"
     inkscape:cy="303.6436"
     inkscape:window-x="-9"
     inkscape:window-y="-9"
     inkscape:window-maximized="1"
     inkscape:current-layer="g1436" />
  <g
     inkscape:groupmode="layer"
     inkscape:label="Image"
     id="g1436"
     transform="translate(-44.02998,100.42599)">
    <path
       style="fill:#000000;stroke-width:0.0492965"
       d="m 44.86056,-76.471284 c 0,-0.02496 -0.07016,-0.06079 -0.155917,-0.07963 -0.216151,-0.04747 -0.617946,-0.458163 -0.655907,-0.670426 -0.01631,-0.09122 -0.02334,-5.214325 -0.01562,-11.384679 l 0.01405,-11.218825 0.135453,-0.177586 c 0.0745,-0.0977 0.207599,-0.22905 0.295779,-0.29194 l 0.160327,-0.11436 11.214985,-0.014 c 6.168242,-0.008 11.289619,-6.9e-4 11.380838,0.0156 0.212263,0.038 0.622952,0.439753 0.670426,0.655904 0.01884,0.08575 0.05467,0.155917 0.07963,0.155917 0.02751,0 0.04538,4.37799 0.04538,11.116392 0,6.738402 -0.01787,11.116392 -0.04538,11.116392 -0.02496,0 -0.06079,0.07016 -0.07963,0.155917 -0.04469,0.203488 -0.452226,0.61102 -0.655714,0.655714 -0.08575,0.01884 -0.155917,0.05467 -0.155917,0.07963 0,0.02751 -4.37799,0.04538 -11.116392,0.04538 -6.738401,0 -11.116391,-0.01787 -11.116391,-0.04538 z M 66.748267,-88.478932 V -99.250247 H 55.976951 45.205637 v 10.771315 10.771315 h 10.771314 10.771316 z m -12.841774,8.421942 c -0.676447,-0.02159 -2.444793,-0.210822 -2.908501,-0.311234 -0.108453,-0.02349 -0.330287,-0.06946 -0.492967,-0.102173 -1.777299,-0.357366 -3.17567,-0.942772 -3.6095,-1.511062 l -0.137044,-0.179519 -0.01523,-0.980647 -0.01523,-0.980647 0.187763,0.191091 c 0.302352,0.30771 0.949526,0.693008 1.383208,0.8235 0.107008,0.0322 0.110917,0.05422 0.110917,0.624853 0,0.325313 0.02296,0.634388 0.05103,0.686831 0.03513,0.06564 0.103388,0.09535 0.21904,0.09535 0.261939,0 0.321489,-0.128601 0.321489,-0.694272 v -0.475149 l 0.197186,0.05263 0.197187,0.05263 v 0.733057 0.733058 l 0.144098,0.144097 c 0.170357,0.170358 0.288643,0.181013 0.465462,0.04193 0.128749,-0.101274 0.12989,-0.107957 0.12989,-0.761188 0,-0.362459 0.01902,-0.670771 0.04226,-0.685136 0.02324,-0.01436 0.172983,-0.0035 0.332753,0.0241 1.432254,0.247603 2.435895,0.316627 4.603947,0.316627 2.180459,0 2.906519,-0.04943 4.609236,-0.313769 0.776799,-0.120596 2.098739,-0.452682 2.215884,-0.556653 0.02576,-0.02286 0.07612,-0.04157 0.111905,-0.04157 0.161927,0 0.922524,-0.421178 1.171462,-0.648694 l 0.271942,-0.248539 v 0.897161 c 0,0.732392 -0.01497,0.928709 -0.08152,1.068944 -0.13217,0.278527 -0.67594,0.644544 -1.372734,0.924001 -0.189792,0.07612 -0.389443,0.156943 -0.443669,0.179609 -0.26273,0.109818 -1.133638,0.353103 -1.577494,0.440666 -0.162678,0.03209 -0.384513,0.07809 -0.492965,0.102219 -0.264541,0.05885 -1.085819,0.184262 -1.602141,0.244647 -1.083766,0.12675 -2.417231,0.164334 -4.017676,0.113243 z m -0.542263,-3.050761 c -1.089797,-0.06276 -1.378889,-0.09228 -2.464832,-0.251618 -2.073266,-0.304214 -3.645058,-0.896663 -4.022936,-1.516347 -0.135619,-0.222401 -0.120321,-0.493527 0.04047,-0.717214 0.143753,-0.199987 0.508557,-0.47158 0.827483,-0.616053 0.108452,-0.04913 0.211813,-0.09754 0.22969,-0.107582 0.01788,-0.01004 0.08097,0.08186 0.140206,0.204226 0.16391,0.338593 0.742935,0.75879 1.360171,0.987073 0.132989,0.04918 0.263981,0.104151 0.291094,0.122147 0.02711,0.018 0.182398,0.07141 0.345077,0.118696 0.162678,0.04729 0.351238,0.104989 0.419021,0.128225 0.502534,0.172269 1.668922,0.395376 3.08104,0.589343 1.323903,0.181849 4.260588,0.242949 5.348685,0.111283 1.186083,-0.143524 2.185181,-0.331541 3.056392,-0.575171 0.257574,-0.07203 0.534868,-0.149319 0.616208,-0.171754 0.08134,-0.02244 0.297628,-0.09803 0.480641,-0.167994 0.324743,-0.12414 0.332753,-0.124806 0.332753,-0.02762 0,0.169453 -0.461906,0.566759 -0.901417,0.775348 -0.961384,0.456266 -2.079606,0.729843 -4.052895,0.991553 -1.203639,0.159635 -3.527147,0.215586 -5.12685,0.123457 z m 2.34159,-1.625006 c -0.04067,-0.01093 -0.425218,-0.04388 -0.854551,-0.07321 -0.69646,-0.04758 -1.043579,-0.09027 -2.004654,-0.246546 -1.808622,-0.294088 -3.404197,-0.86916 -4.031805,-1.45313 l -0.28165,-0.262067 -0.01609,-0.966529 c -0.0089,-0.531591 -0.0042,-0.966529 0.01043,-0.966529 0.01459,0 0.13026,0.100819 0.257047,0.224041 0.397501,0.386326 1.314399,0.773265 2.446099,1.032274 0.9397,0.215066 1.271228,0.269848 2.527959,0.417719 2.144956,0.252382 5.386563,0.180377 7.533687,-0.167343 0.266346,-0.04313 0.504819,-0.06572 0.529939,-0.0502 0.02512,0.01552 0.04567,0.322956 0.04567,0.68318 0,0.571904 0.01143,0.665301 0.09015,0.736541 0.139878,0.126587 0.386991,0.10374 0.528411,-0.04885 0.116978,-0.126223 0.120888,-0.153992 0.120888,-0.858775 v -0.728334 l 0.160214,-0.03937 c 0.08812,-0.02165 0.180027,-0.04005 0.204242,-0.04089 0.02422,-8.37e-4 0.03948,0.205471 0.03392,0.458462 -0.01178,0.535905 0.05462,0.698487 0.285275,0.698487 0.258495,0 0.302283,-0.113258 0.302283,-0.781851 0,-0.529823 0.01029,-0.604747 0.08627,-0.628366 0.335857,-0.104405 1.016396,-0.494674 1.282476,-0.735463 l 0.307341,-0.278128 v 0.920998 c 0,0.759665 -0.01448,0.951509 -0.08265,1.095174 -0.200885,0.423335 -1.498372,1.098662 -2.67796,1.393847 -1.237729,0.309735 -2.338818,0.488873 -3.650412,0.593892 -0.677092,0.05421 -3.018763,0.106926 -3.152524,0.07096 z m -0.492966,-3.060011 c -0.710872,-0.03719 -2.467714,-0.229062 -2.93315,-0.320349 -0.648582,-0.127209 -0.821543,-0.165181 -1.257065,-0.275982 -1.238446,-0.315072 -2.075367,-0.727988 -2.346698,-1.157803 -0.06889,-0.109125 -0.113478,-0.210182 -0.09909,-0.224571 0.01439,-0.01439 0.121361,0.01227 0.237717,0.05923 0.425,0.171552 1.022219,0.350303 1.739751,0.520718 0.361647,0.08589 0.500469,0.115691 1.158471,0.24868 0.217754,0.04401 0.69644,0.106039 1.528196,0.198029 1.424257,0.157518 3.550814,0.08888 5.644465,-0.182191 1.739644,-0.225235 3.453433,-0.692636 4.17691,-1.139169 0.101136,-0.06242 0.20494,-0.113493 0.230676,-0.113493 0.103312,0 0.645319,-0.571716 0.645319,-0.68069 0,-0.174146 0.112952,-0.176409 0.444769,-0.0089 0.383009,0.193342 0.764879,0.545184 0.840544,0.77445 0.288555,0.874331 -1.619135,1.750171 -4.588188,2.106484 -0.338914,0.04067 -0.815859,0.09799 -1.059877,0.127376 -0.427013,0.05142 -3.704111,0.10264 -4.362752,0.06819 z m -1.552844,-1.755827 c -0.939601,-0.06384 -2.238802,-0.242687 -3.130337,-0.430923 -1.83171,-0.386743 -3.232795,-1.015955 -3.526362,-1.58365 -0.05569,-0.107696 -0.07229,-0.344122 -0.07229,-1.029585 0,-0.489383 0.0095,-0.889788 0.02113,-0.889788 0.01162,0 0.122337,0.09697 0.246037,0.215495 0.613933,0.588233 2.087864,1.065806 4.19418,1.358974 0.93683,0.130393 1.205602,0.152421 2.520469,0.206575 2.174162,0.08955 4.327721,-0.02613 6.118767,-0.328654 l 0.20951,-0.03539 v 0.640508 c 0,0.573341 0.01071,0.65413 0.102172,0.770399 0.06761,0.08596 0.14962,0.12989 0.242451,0.12989 0.381912,0 0.444124,-0.144886 0.444124,-1.034329 0,-0.512329 0.01614,-0.699121 0.06162,-0.713132 0.03389,-0.01044 0.122625,-0.03235 0.197187,-0.04869 l 0.135565,-0.0297 v 0.510913 c 0,0.560703 0.05119,0.674084 0.304346,0.674084 0.242446,0 0.287214,-0.121814 0.287214,-0.781523 v -0.601223 l 0.135566,-0.05075 c 0.430745,-0.161255 0.968677,-0.472824 1.23954,-0.71794 l 0.306851,-0.277685 -0.01526,0.997781 -0.01526,0.997782 -0.296638,0.2784 c -0.453488,0.425607 -1.291163,0.811671 -2.488623,1.146944 -0.672207,0.18821 -2.121806,0.438465 -3.08104,0.531906 -1.592582,0.155135 -2.822932,0.18286 -4.140917,0.09331 z m 1.01058,-3.032031 c -0.754258,-0.01233 -2.161398,-0.100785 -2.662018,-0.167337 -1.55153,-0.206261 -2.404519,-0.374406 -3.212812,-0.633325 -1.00174,-0.320886 -1.70726,-0.784012 -1.817387,-1.192991 -0.104713,-0.388876 0.209017,-0.786927 0.888637,-1.127473 0.697225,-0.349367 1.361468,-0.542069 2.884498,-0.836814 0.248811,-0.04815 0.98421,-0.138092 2.070459,-0.253221 0.794737,-0.08423 4.190392,-0.08502 4.954312,-0.0011 1.307355,0.143536 1.86253,0.211813 2.095107,0.257664 0.135566,0.02673 0.368492,0.07273 0.517614,0.102234 0.394021,0.07795 0.889611,0.191756 1.059878,0.243379 0.419114,0.127073 0.942433,0.307999 0.985933,0.340864 0.02711,0.02048 0.104755,0.05376 0.172538,0.07394 0.22202,0.0661 0.789008,0.473958 0.913439,0.657073 0.139434,0.205197 0.159839,0.482037 0.05104,0.692437 -0.325251,0.628967 -1.945518,1.247879 -4.070164,1.55473 -1.577747,0.227865 -3.087557,0.318494 -4.831071,0.289992 z"
       id="path2001" />
  </g>
</svg>
