<?xml version="1.0" encoding="UTF-8" standalone="no"?>
<svg
   xmlns:dc="http://purl.org/dc/elements/1.1/"
   xmlns:cc="http://creativecommons.org/ns#"
   xmlns:rdf="http://www.w3.org/1999/02/22-rdf-syntax-ns#"
   xmlns:svg="http://www.w3.org/2000/svg"
   xmlns="http://www.w3.org/2000/svg"
   xmlns:sodipodi="http://sodipodi.sourceforge.net/DTD/sodipodi-0.dtd"
   xmlns:inkscape="http://www.inkscape.org/namespaces/inkscape"
   version="1.1"
   id="svg833"
   width="24"
   height="23.999996"
   viewBox="0 0 24 23.999996"
   sodipodi:docname="wydruki.svg"
   inkscape:version="1.0.2-2 (e86c870879, 2021-01-15)">
  <metadata
     id="metadata839">
    <rdf:RDF>
      <cc:Work
         rdf:about="">
        <dc:format>image/svg+xml</dc:format>
        <dc:type
           rdf:resource="http://purl.org/dc/dcmitype/StillImage" />
        <dc:title></dc:title>
      </cc:Work>
    </rdf:RDF>
  </metadata>
  <defs
     id="defs837" />
  <sodipodi:namedview
     pagecolor="#ffffff"
     bordercolor="#666666"
     borderopacity="1"
     objecttolerance="10"
     gridtolerance="10"
     guidetolerance="10"
     inkscape:pageopacity="0"
     inkscape:pageshadow="2"
     inkscape:window-width="1920"
     inkscape:window-height="1001"
     id="namedview835"
     showgrid="false"
     inkscape:zoom="22.432432"
     inkscape:cx="13.60849"
     inkscape:cy="15.289775"
     inkscape:window-x="-9"
     inkscape:window-y="-9"
     inkscape:window-maximized="1"
     inkscape:current-layer="g841" />
  <g
     inkscape:groupmode="layer"
     inkscape:label="Image"
     id="g841"
     transform="translate(-126.98297,-20.123842)">
    <path
       style="fill:#000000;stroke-width:0.0468806"
       d="m 129.43525,44.075541 c -0.60907,-0.101351 -1.36663,-0.555855 -1.76584,-1.059438 -0.27832,-0.351092 -0.52494,-0.862295 -0.61019,-1.264821 -0.10202,-0.48175 -0.10149,-18.776124 5.6e-4,-19.258057 0.18382,-0.86807 0.7998,-1.663913 1.58046,-2.041966 0.7397,-0.358214 -0.0229,-0.334897 10.50064,-0.321067 l 9.43212,0.01239 0.34376,0.125635 c 0.48835,0.178473 0.82483,0.391049 1.17748,0.743873 0.35265,0.352824 0.56511,0.689478 0.7435,1.178067 l 0.12557,0.343937 0.0131,9.42537 c 0.0145,10.46884 0.0344,9.768369 -0.29636,10.457002 -0.40488,0.842987 -1.14369,1.426899 -2.06942,1.635543 -0.30537,0.06882 -1.21814,0.07551 -9.63154,0.07055 -5.14853,-0.003 -9.40555,-0.02401 -9.54383,-0.04702 z m 19.18462,-1.587613 c 0.29878,-0.148038 0.57962,-0.42902 0.72758,-0.72795 l 0.11606,-0.234462 0.0123,-6.951797 0.0123,-6.951796 h -6.37476 -6.37476 v 1.200392 c 0,1.342483 -0.0147,1.418366 -0.31912,1.650967 -0.15645,0.119525 -0.19758,0.127136 -0.76593,0.141741 l -0.60061,0.01543 -0.0452,0.172137 c -0.0249,0.09467 -0.12096,0.478108 -0.21352,0.852075 -0.20206,0.816355 -0.22439,0.844063 -0.68025,0.844063 -0.45587,0 -0.4782,-0.02771 -0.68025,-0.844063 -0.0926,-0.373967 -0.18865,-0.7574 -0.21352,-0.852075 l -0.0452,-0.172137 -0.60061,-0.01543 c -0.57866,-0.01487 -0.60707,-0.02037 -0.7775,-0.150569 -0.29296,-0.223803 -0.30755,-0.301873 -0.30755,-1.645269 v -1.197262 h -1.49981 -1.4998 v 6.868096 c 0,6.21519 0.007,6.889426 0.0761,7.092473 0.15771,0.464836 0.49365,0.804918 0.95524,0.967018 0.1895,0.06655 1.14717,0.073 9.53755,0.06426 l 9.32689,-0.0097 z M 137.02003,40.29459 c -1.0334,-0.622651 -1.40831,-0.872704 -1.48817,-0.992563 -0.10658,-0.159959 -0.10673,-0.16289 -0.0944,-1.776816 0.0108,-1.418145 0.0215,-1.622367 0.0869,-1.663621 0.11482,-0.07243 2.8775,1.42525 3.00009,1.626382 0.0826,0.135584 0.0887,0.260423 0.0888,1.835946 1.8e-4,1.695064 -0.01,1.803012 -0.16204,1.803012 -0.0273,0 -0.67136,-0.374553 -1.43114,-0.83234 z m 2.3995,0.776069 c -0.0417,-0.04169 -0.0563,-0.495518 -0.0563,-1.75153 0,-1.681577 8.6e-4,-1.69649 0.10546,-1.847835 0.0812,-0.117551 0.42285,-0.323496 1.48808,-0.897116 0.76045,-0.409497 1.40825,-0.744887 1.43957,-0.745313 0.13554,-0.0018 0.15397,0.207306 0.15397,1.747673 0,1.549976 -0.001,1.568778 -0.10615,1.726378 -0.0791,0.118734 -0.45816,0.371426 -1.48757,0.991674 -0.75978,0.457787 -1.40379,0.83234 -1.43114,0.83234 -0.0273,0 -0.075,-0.02532 -0.10597,-0.05627 z m -0.61867,-4.335165 c -0.19639,-0.07637 -3.0971,-1.676046 -3.14592,-1.734898 -0.0457,-0.05507 -0.0392,-0.08562 0.033,-0.155117 0.0494,-0.0476 0.75425,-0.451253 1.56625,-0.897009 1.35543,-0.744077 1.49556,-0.810475 1.71071,-0.810566 0.21555,-9.4e-5 0.35738,0.06734 1.76863,0.84095 0.84386,0.462578 1.5455,0.870102 1.5592,0.905609 0.0137,0.03551 0.001,0.09336 -0.0282,0.128553 -0.0969,0.116855 -3.07825,1.710326 -3.23722,1.730247 -0.0859,0.01076 -0.18781,0.0073 -0.22647,-0.0078 z M 131.4969,25.613451 c 0.0148,-0.47559 0.0245,-0.519181 0.15093,-0.684915 0.24024,-0.314831 0.21642,-0.312031 2.53028,-0.297403 l 2.07579,0.01312 0.17704,0.135136 c 0.24668,0.1883 0.30769,0.365768 0.30769,0.894991 v 0.446984 h 6.37634 6.37634 l -0.0139,-1.69985 -0.0139,-1.699849 -0.11606,-0.234462 c -0.14796,-0.29893 -0.4288,-0.579912 -0.72758,-0.72795 l -0.23434,-0.116113 h -9.3972 -9.39719 l -0.23434,0.116113 c -0.12889,0.06386 -0.31922,0.201022 -0.42294,0.3048 -0.10373,0.103779 -0.24082,0.294196 -0.30465,0.42315 l -0.11605,0.234462 -0.0139,1.699849 -0.0139,1.69985 h 1.49784 1.49783 z"
       id="path845" />
  </g>
</svg>
